<?xml version="1.0" standalone="no"?>
<!DOCTYPE svg PUBLIC "-//W3C//DTD SVG 20010904//EN"
 "http://www.w3.org/TR/2001/REC-SVG-20010904/DTD/svg10.dtd">
<svg version="1.0" xmlns="http://www.w3.org/2000/svg"
 width="500.000000pt" height="500.000000pt" viewBox="0 0 500.000000 500.000000"
 preserveAspectRatio="xMidYMid meet">
<metadata>
Created by potrace 1.14, written by Peter Selinger 2001-2017
</metadata>
<g transform="translate(0.000000,500.000000) scale(0.100000,-0.100000)"
fill="#000000" stroke="none">
<path d="M1167 3074 c-4 -4 -7 -34 -7 -66 l0 -58 75 0 75 0 2 -322 3 -323 65
0 65 0 0 320 0 320 78 3 78 3 -3 62 -3 62 -211 3 c-115 1 -213 -1 -217 -4z"/>
<path d="M1660 2690 l0 -390 65 0 65 0 0 170 0 170 85 0 85 0 0 -170 0 -170
65 0 65 0 0 390 0 390 -65 0 -65 0 0 -155 0 -155 -85 0 -85 0 0 155 0 155 -65
0 -65 0 0 -390z"/>
<path d="M2190 2691 l0 -391 65 0 65 0 0 170 0 170 41 0 c49 0 99 -22 119 -52
10 -17 16 -61 18 -155 l4 -133 65 0 65 0 -4 148 c-3 137 -5 150 -30 195 l-27
47 32 52 c27 44 32 60 31 112 -1 94 -41 159 -124 202 -28 14 -65 19 -177 22
l-143 4 0 -391z m264 245 c61 -26 70 -111 14 -150 -15 -11 -44 -16 -85 -16
l-63 0 0 90 0 90 50 0 c28 0 66 -6 84 -14z"/>
<path d="M2730 2690 l0 -390 65 0 65 0 0 390 0 390 -65 0 -65 0 0 -390z"/>
<path d="M2960 2690 l0 -390 65 0 65 0 0 170 0 170 115 0 115 0 0 65 0 65
-115 0 -115 0 0 90 0 90 115 0 115 0 0 65 0 65 -180 0 -180 0 0 -390z"/>
<path d="M3387 3074 c-4 -4 -7 -34 -7 -66 l0 -58 75 0 75 0 2 -322 3 -323 65
0 65 0 0 320 0 320 78 3 78 3 -3 62 -3 62 -211 3 c-115 1 -213 -1 -217 -4z"/>
<path d="M1720 1990 c0 -40 4 -70 10 -70 6 0 10 11 10 25 0 22 4 25 35 25 24
0 35 5 35 15 0 11 -11 15 -36 15 -28 0 -35 3 -32 18 2 12 14 18 41 20 55 5 45
22 -13 22 l-50 0 0 -70z"/>
<path d="M1899 2042 c-15 -13 -22 -30 -22 -52 0 -59 69 -91 121 -54 31 21 31
87 0 108 -30 21 -71 20 -99 -2z m87 -27 c15 -23 15 -27 0 -50 -19 -29 -42 -32
-68 -8 -22 20 -23 41 -1 65 23 25 50 23 69 -7z"/>
<path d="M2090 1990 c0 -40 4 -70 10 -70 6 0 10 9 10 20 0 28 37 26 60 -2 10
-13 22 -20 26 -16 4 4 1 15 -6 23 -10 12 -10 19 -2 27 7 7 12 24 12 40 0 33
-24 48 -74 48 l-36 0 0 -70z m74 44 c25 -10 19 -43 -8 -50 -30 -7 -46 1 -46
25 0 30 19 38 54 25z"/>
<path d="M2270 1990 c0 -76 17 -97 22 -27 l3 42 20 -32 c11 -18 25 -33 30 -33
6 0 19 15 30 33 l20 32 3 -42 c5 -70 22 -49 22 27 0 39 -4 70 -10 70 -5 0 -21
-21 -36 -46 l-27 -46 -28 46 c-16 25 -34 46 -39 46 -6 0 -10 -30 -10 -70z"/>
<path d="M2512 1993 c-20 -43 -28 -69 -20 -72 6 -2 15 4 20 13 6 10 22 16 43
16 21 0 37 -6 43 -16 5 -9 14 -15 20 -13 15 5 -46 139 -63 139 -7 0 -26 -30
-43 -67z m68 -15 c0 -5 -11 -8 -25 -8 -29 0 -29 0 -13 35 l12 26 13 -23 c7
-13 12 -26 13 -30z"/>
<path d="M2670 2050 c0 -5 9 -10 20 -10 18 0 20 -7 20 -60 0 -47 3 -60 15 -60
12 0 15 13 15 60 0 53 2 60 20 60 11 0 20 5 20 10 0 6 -25 10 -55 10 -30 0
-55 -4 -55 -10z"/>
<path d="M2820 2050 c0 -5 11 -10 25 -10 24 0 25 -3 25 -60 0 -33 4 -60 10
-60 6 0 10 27 10 60 0 57 1 60 25 60 14 0 25 5 25 10 0 6 -27 10 -60 10 -33 0
-60 -4 -60 -10z"/>
<path d="M3000 1990 l0 -70 50 0 c58 0 68 17 13 22 -27 2 -39 8 -41 21 -3 14
4 17 32 17 45 0 48 18 4 22 -48 4 -44 32 5 36 55 5 45 22 -13 22 l-50 0 0 -70z"/>
<path d="M3170 1990 c0 -40 4 -70 10 -70 6 0 10 9 10 20 0 28 37 26 60 -2 10
-13 22 -20 26 -16 4 4 1 15 -6 23 -10 12 -10 19 -2 27 7 7 12 24 12 40 0 33
-24 48 -74 48 l-36 0 0 -70z m74 44 c25 -10 19 -43 -8 -50 -30 -7 -46 1 -46
25 0 30 19 38 54 25z"/>
</g>
</svg>
